# xmcd
#
# Track frame offsets: 
#        150
#        28688
#        47120
#
# Disc length: 983 seconds
#
# Revision: 0
# Processed by: cddbd v1.5.2PL0 Copyright (c) Steve Scherf et al.
# Submitted via: ExactAudioCopy v0.99pb5
#
DISCID=1f03d503
DTITLE=The Outlaw - Every man got a blues in his mind [CD-single]
DYEAR=1900
DGENRE=Blues
TTITLE0=Every man got a blues in his mind
TTITLE1=Lydia
TTITLE2=The outlaw
EXTD=
EXTT0=
EXTT1=
EXTT2=
PLAYORDER=
